/* XPM */
static char *_069bae7c85c46869cfffb99f2cf236c3KA33AE9ay3uitXg[] = {
/* columns rows colors chars-per-pixel */
"50 50 161 2 ",
"   c #172E0E",
".  c #192F0F",
"X  c #1B320F",
"o  c #1A2F10",
"O  c #1D3311",
"+  c #1F3812",
"@  c #213613",
"#  c #283713",
"$  c #263A16",
"%  c #263B16",
"&  c #253A14",
"*  c #243C14",
"=  c #253C14",
"-  c #243C15",
";  c #253C15",
":  c #243D15",
">  c #263C14",
",  c #273C14",
"<  c #263D14",
"1  c #263C15",
"2  c #273C15",
"3  c #263D15",
"4  c #273D15",
"5  c #253E15",
"6  c #263E14",
"7  c #263F15",
"8  c #273F15",
"9  c #253C16",
"0  c #263C16",
"q  c #273C16",
"w  c #263D16",
"e  c #273D16",
"r  c #263E16",
"t  c #273E16",
"y  c #273F16",
"u  c #273E17",
"i  c #273F17",
"p  c #243A14",
"a  c #283A13",
"s  c #283B15",
"d  c #283B17",
"f  c #283C14",
"g  c #293C14",
"h  c #283C15",
"j  c #293C15",
"k  c #283D15",
"l  c #293D15",
"z  c #2A3D15",
"x  c #283E14",
"c  c #283E15",
"v  c #293E15",
"b  c #283F15",
"n  c #293F15",
"m  c #2A3E15",
"M  c #2B3F15",
"N  c #283C16",
"B  c #283D16",
"V  c #293D16",
"C  c #283D17",
"Z  c #2A3C16",
"A  c #2A3D16",
"S  c #2B3D16",
"D  c #283E16",
"F  c #293E16",
"G  c #293F16",
"H  c #283E17",
"J  c #293E17",
"K  c #283F17",
"L  c #2A3E16",
"P  c #2A3F16",
"I  c #2B3F16",
"U  c #2B3E17",
"Y  c #2A3F17",
"T  c #2B3F17",
"R  c #2C3E16",
"E  c #2D3F16",
"W  c #2C3E17",
"Q  c #2C3F17",
"!  c #293E16",
"~  c #2B3F18",
"^  c #2B3E18",
"/  c #313F18",
"(  c #313F19",
")  c #274017",
"_  c #294115",
"`  c #284016",
"'  c #294016",
"]  c #284116",
"[  c #2A4016",
"{  c #2B4016",
"}  c #2A4017",
"|  c #2B4017",
" . c #2A4117",
".. c #2B4117",
"X. c #2B4216",
"o. c #2B4217",
"O. c #2A4317",
"+. c #2C4016",
"@. c #2C4116",
"#. c #2C4017",
"$. c #2C4117",
"%. c #2C4217",
"&. c #2D4217",
"*. c #2D4317",
"=. c #2F4217",
"-. c #2E4317",
";. c #2C4417",
":. c #2E4417",
">. c #2F4417",
",. c #2B4117",
"<. c #2A4018",
"1. c #2B4018",
"2. c #2B4118",
"3. c #2C4018",
"4. c #2D4119",
"5. c #2E4018",
"6. c #2F4119",
"7. c #2C4218",
"8. c #2D4218",
"9. c #2D4219",
"0. c #2E4319",
"q. c #2F431A",
"w. c #2D4519",
"e. c #2E4519",
"r. c #2E4618",
"t. c #2F4619",
"y. c #2D4219",
"u. c #304117",
"i. c #304217",
"p. c #304217",
"a. c #324018",
"s. c #304318",
"d. c #314219",
"f. c #304319",
"g. c #334218",
"h. c #30431A",
"j. c #33421A",
"k. c #364218",
"l. c #36431B",
"z. c #304418",
"x. c #304519",
"c. c #314519",
"v. c #324519",
"b. c #324619",
"n. c #31451A",
"m. c #30461A",
"M. c #344619",
"N. c #35441B",
"B. c #324419",
"V. c #30481A",
"C. c #32481A",
"Z. c #32481B",
"A. c #334A1A",
"S. c #34491A",
"D. c #34491B",
"F. c #374B1B",
"G. c #364C1C",
"H. c #33491B",
"J. c #3A4A1A",
"K. c #394F1D",
"L. c #394B1B",
/* pixels */
"9 9 h h h i.J.z.h.Q @ & @ @ d h 9 @ @ - - h 9.1.@ - 9.N.l.9 & @ @ - h h 9 @ - 9 & @ @ 9 @ h %.h.( h ",
"9 h h %.z.h z.D.9.1.- h Q h & h } %.- h Q h h.9.- p - - h - - - - - %.%.9 h 1.9 p h h @ O - h h.h.h ",
"9 - - - h %.9.h.h ~ h - @ - h z.e.h & - - - h 9 @ O @ p - @ @ h %.h i.} } } 9.h @ @ - 9 p @ @ - - - ",
"9 - p - - h 9.l.h.9 h @ @ - h %.%.& @ 9 9 @ @ 9 @ O O @ 9 @ & - 9 - - 9.e.} 9 h 9 @ & @ @ O O p 9 @ ",
"@ @ - - @ p d Q Q - - @ @ - h h @ 9 h 9 @ - 9 @ O O O - 9 - - 9 } %.} D.K.V.} h } h @ @ O O O @ - & ",
"O O @ p @ O p p - & - h %.h h.9.h 1.9.9 @ h 9 9 @ @ O O - - h 9.z.%.N.V.e.:.9 @ 9 h 9 @ @ O O @ h - ",
"- @ O O O O O p h @ @ 9 h 9 h 1.%.h h h @ O @ - @ @ O O O p 9 9 9 9 e.} } } } 9 9 9 9 9 - @ O O - @ ",
"@ p @ O O O O - - @ - p 9 h h D.G.e.h ~ } h - @ @ O X O O @ @ + @ * ) 9 - } :.h.h - - 1.- @ O O O + ",
"@ @ O O @ O O @ h - d 9.z.%.%.V.V.e.9 - 9 h & O @ 9 @ O O @ - - a & %.:.z.e.} } h - 9 %.h @ O O O + ",
"O O . O & @ O O @ p 9 1.1.} D.e.} } 9 9 9 h 9 @ 9 } 9.h h %.i.h h @ h e.e.9 9 h - Q i.J.%.9 - @ O & ",
"O O . O @ O O O O + @ @ * * 9 9 9 } :.%.h 9 9 h h 9.9.9.9.h @ 9 h 9 p 9 } - h h 9.9.h D.9.h 9.1.} z.",
"- @ @ @ h @ O O O @ O & @ & } } 9.9.%.9.} - - h - h h - - @ O - h - p @ 9 9 - - - h Q 9.9.9.9.1.1.9 ",
"@ @ @ h } h h p @ %.%.9 h p } V.z.) 9 9 - h %.Q & @ 9 & O O O - @ O & - h 9 p p - - h h.Q - 9 @ @ O ",
"h @ d Q h 9.9.9.e.%.9 h } - 9 } e.- h } %.%.%.9 - - & @ X O 9 p @ @ h 9 & p p - - @ - h h @ 9 & O X ",
"9.h - h h 9.1.9 h @ @ - Q 9 @ & 9 - h 9 h Q h - 9 h - @ @ p @ O @ p h 9 @ O O p p @ O p - h & @ O O ",
"h & & h & & 9 @ O O O 9 & @ @ & h 9 p @ - h h & O @ - @ @ p O O O @ - p O & O O O O O @ p 9 9 - p p ",
"@ 9 9 9 @ @ 9 @ X O - - @ @ h h - - - - - @ h h h - @ O O O O O O X O O O @ p @ O O O @ @ @ - @ @ @ ",
"h 9.} p 9 h & @ O @ p @ p @ h - @ O O - - @ @ - h - O O @ @ @ O O O O O O @ @ O O @ - 9.h 9 @ O O @ ",
"h 9.h @ @ @ 9 @ p p @ O O p 9 - @ @ O O @ O O p 9 ~ p @ @ @ @ @ @ O O O @ O O O @ - 9 - 9 9 @ @ @ @ ",
"9.9 h h & - @ O @ O O O O O @ O O p @ O O O O @ 9 9 9 h - - ~ 9 ( @ @ @ @ O . . O 9 9 - 9 1.9 p p @ ",
"V.} h h h - @ O O O @ O O O O O O @ @ O O O O @ p @ h h.W h h - @ & - @ a d @ O @ } 9.h 9 - h 9.h 9 ",
":.9 - - 9 9 @ @ @ @ @ @ O O O O @ O O O @ @ O O @ @ Q l.l.h - @ O - h & @ @ 9 9 9 h %.} 9 @ h 9.9.1.",
"%.} 9 9 9 9 9 9 p p - - W O O O @ O . . O @ O O p @ - - 9 - - - - - %.9.9 9 9.h p h h & @ h h h.9.h ",
"h %.h.h.- - h h - 9 9.h d @ @ @ d @ X O O @ O O @ O @ p 9 & @ 9 %.h %.h } h 9.h @ @ @ 9 @ & %.h.l.Q ",
"- h h.h.h & @ @ - h h - - 9 9 @ - d & @ - - @ O O O O @ 9 @ & p 9 - 9 e.V.9.9 h 9 @ - @ @ @ - h Q h ",
"O p p - - - 9 h h 9.9.9 1.9.h p h h & O O @ @ O O O O @ 9 - - 9 } %.} z.K.V.} h } h - @ @ O O p - - ",
"O @ p 9 @ @ 9 h h Q h } } } h @ O @ - @ O O O O @ @ O O - - h 9.z.%.N.V.e.:.9 p - 9 9 @ @ O O @ - - ",
"O O @ - @ - p - 9 9 V.V.9.h h h - - @ @ @ O . O @ @ O O O @ - * 9 9 %.} 9 } } 9 9 9 9 9 @ O O @ - - ",
"O O @ h - - h %.:.%.V.G.V.} h h h @ O @ @ O O O @ @ X O O + @ + @ @ 9 9 9 h :.z.} 9 p h - @ O O - - ",
"@ O O p - h 9.e.} D.V.:.%.9 p - h 9 @ O O O @ d %.9 & @ O @ 9 - h & %.:.V.e.} h 9 9 9 %.d @ O O O @ ",
"@ O O O @ p p 9 9 } h 9 } } h h 9 9 9 @   . O & 9 h 9.~ h %.i.h h @ 9 e.e.9 9 h h h i.J.h @ O O O + ",
"O O O O @ O @ @ @ } 9 h } :.z.} p - 1.d @ @ - & - 9.9.9.9.h @ - h h - * } 9 h h %.h.h z.z.9 O O O O ",
"9 9 @ O 9 h - h - } e.V.9.9 9 9 9 Q 9.h @ - h } h h 9 - - @ O @ h - * @ 9 9 - - - h Q 9.9.} } h p h ",
"} 9.1.%.e.%.h h p 9 e.e.- h h h %.i.J.h - Q h h 9.9.} 9 O O O - & O & 9 h 9 - p - - h 9.W h 9.9.9.%.",
"9.9.h } 9 @ - h h p @ h - h } 9.%.h z.z.- h h 1.9.h h - O O - p @ @ h 9 & @ p - - @ - d - h 1.h 9 - ",
"9 9 @ @ O O - h @ p & 9 9 p @ - h %.9.9.& d & & 9 & @ O O O @ O @ p 9 h @ O O p p @ O @ & @ & - @ O ",
"@ 9 @ X O @ 9 @ O - d h 9 - - - @ h h.h.- 9 & @ - & O O @ @ O O O @ @ p O @ @ O O O O O @ @ - & O X ",
"h & @ O @ p @ @ @ h - @ @ @ - - @ p - h } 9 - h - @ O @ p @ O O O X O O O @ p @ O O O O - h - @ O @ ",
"- 9 p p p @ O O p 9 9 @ @ O @ p O O p 9 } - @ @ 9 - @ - @ O O @ O O O O O @ @ O O @ O O O @ - - @ - ",
"@ - @ @ @ O O O O @ @ O - @ O O O O O p 9 h & @ - @ O @ O O O O O @ O O @ O O . O & @ - 9 & - @ O @ ",
"- @ O O O O O O X O O O @ @ @ O O O @ - h 1.h 9 @ O O O O O @ O O O O O @ O o . O @ - h h h @ O O @ ",
"- @ @ @ @ @ @ O O O O @ @ @ O O @ O O @ 9 p 9 h @ @ @ @ @ @ O O O O O @ O O O @ @ 9 9 p 9 h - @ @ @ ",
"1.9 p @ @ - - d O O O @ O O . O & @ O 9 } 9 9 h 9 9 - @ - - W @ o o @ O O . O @ @ 9 } 9 9 h 9 9 9 p ",
"- h 9.h h h - W @ @ @ & @ . . O @ O O @ z.%.h p 9 9.Q d h 9 h h - @ & & O X O @ O & z.9.} h.h.h h h ",
"%.h.%.D.z.- 9 & a d - a d - - - h @ @ O h h h & 9 h - @ @ - h h - p @ - - - - - p - h 9 h 9.l.Q - @ ",
"h %.h e.z.h 1.h 9 h h - %.e.%.- @ O - p p @ - - - & - - - h 9.} - 1.1.9 - ~ h @ O - p @ @ p - - & - ",
"- 9 h 9.h.Q h h & @ & h z.e.9 & @ O O @ O O p - - @ @ h h h %.} } } } 9 @ @ - - O O O O O p 9 & @ & ",
"- @ - W l.i.9 & @ @ - h h - @ - 9 p O O O O O - - @ - - - - h D.e.} 9 h 9 & - @ @ O O O O @ - - @ p ",
"& p @ - - - - - - 9 h 9.%.9 1.1.9 @ O O O O @ - 9 - - 9 %.%.%.G.G.e.} h h h @ O @ O O O O @ - - - h ",
"@ O O p - - @ @ h %.%.i.h } 1.9.9 O O O @ O O @ - - h 9.z.%.J.V.e.} * & - h - O O O @ @ O O @ - 9 1."
};
