/* XPM */
static char *_12df97f24b0433f9dcda42c8eae7cc8rBWGw9wfJ0ecGbN2[] = {
/* columns rows colors chars-per-pixel */
"50 50 219 2 ",
"   c None",
".  c #003D12",
"X  c #00360C",
"o  c #3F3900",
"O  c #453200",
"+  c #5A3F00",
"@  c #663918",
"#  c #0F4317",
"$  c #3A4913",
"%  c #21591B",
"&  c #3C6E00",
"*  c #3D7800",
"=  c #204E20",
"-  c #375231",
";  c #366B28",
":  c #387A29",
">  c #3C6739",
",  c #306E31",
"<  c #484500",
"1  c #544C01",
"2  c #535E00",
"3  c #694916",
"4  c #685318",
"5  c #596800",
"6  c #4B6500",
"7  c #626300",
"8  c #706E0D",
"9  c #445C2A",
"0  c #4D5A3E",
"q  c #6B4528",
"w  c #764A25",
"e  c #476824",
"r  c #42772A",
"t  c #44663C",
"y  c #467836",
"u  c #517632",
"i  c #406443",
"p  c #5E735E",
"a  c #507840",
"s  c #747765",
"d  c #8D5900",
"f  c #856900",
"g  c #806500",
"h  c #90770A",
"j  c #807520",
"k  c #9B653B",
"l  c #967928",
"z  c #BA7C35",
"x  c #A36727",
"c  c #D17800",
"v  c #CB7D24",
"b  c #A16C4A",
"n  c #388325",
"m  c #39853A",
"M  c #3DA239",
"N  c #409E14",
"B  c #5B8D1F",
"V  c #488428",
"C  c #458437",
"Z  c #5A863B",
"A  c #559232",
"S  c #648E33",
"D  c #47A637",
"F  c #55A63D",
"G  c #5BBC3B",
"H  c #4FA424",
"J  c #6AB92B",
"K  c #60A630",
"L  c #6DA439",
"P  c #6BBF3B",
"I  c #65C72E",
"U  c #67CA37",
"Y  c #77CC31",
"T  c #398A42",
"R  c #498446",
"E  c #4B9745",
"W  c #728B5F",
"Q  c #75954D",
"!  c #59B845",
"~  c #4DAB43",
"^  c #66AB49",
"/  c #7BAA4C",
"(  c #69B748",
")  c #74B24D",
"_  c #70BF48",
"`  c #79BB54",
"'  c #7BAB68",
"]  c #5CC449",
"[  c #68C945",
"{  c #7AC54B",
"}  c #79C647",
"|  c #7AD94A",
" . c #7FC552",
".. c #73D355",
"X. c #978B17",
"o. c #95951E",
"O. c #9C803E",
"+. c #988D2D",
"@. c #B08635",
"#. c #85AE3A",
"$. c #D99A02",
"%. c #D38A18",
"&. c #E48D00",
"*. c #E68504",
"=. c #E69504",
"-. c #F59E09",
";. c #F18E14",
":. c #FA9E16",
">. c #E6961D",
",. c #EBA606",
"<. c #F4A708",
"1. c #EBB300",
"2. c #ECAD1D",
"3. c #F5A819",
"4. c #ECB614",
"5. c #FAB20F",
"6. c #DD8722",
"7. c #CD9232",
"8. c #EB962A",
"9. c #F19321",
"0. c #E48D36",
"q. c #E8973D",
"w. c #FA9932",
"e. c #D1A437",
"r. c #CAAF3A",
"t. c #FCAB24",
"y. c #F6A624",
"u. c #EAB627",
"i. c #F2B32B",
"p. c #F8B728",
"a. c #FAAA38",
"s. c #FBBE36",
"d. c #FBB43C",
"f. c #F5B93A",
"g. c #EBAE32",
"h. c #8ED63A",
"j. c #96D33E",
"k. c #F8C51F",
"l. c #FAC426",
"z. c #FFD02E",
"x. c #FECB34",
"c. c #FCC53E",
"v. c #FFCB39",
"b. c #F6C536",
"n. c #FFD338",
"m. c #889C5A",
"M. c #B18B45",
"N. c #A79F40",
"B. c #80BA42",
"V. c #82A25F",
"C. c #92BC5F",
"Z. c #95AE51",
"A. c #BCA253",
"S. c #98B869",
"D. c #D89143",
"F. c #D69752",
"G. c #CC9050",
"H. c #F39F48",
"J. c #D5AB57",
"K. c #CEB051",
"L. c #DCB857",
"P. c #D7B54E",
"I. c #F5A446",
"U. c #FFBA49",
"Y. c #F5B443",
"T. c #E4B150",
"R. c #FFB35D",
"E. c #ECAE4D",
"W. c #D79961",
"Q. c #D8B561",
"!. c #E5B465",
"~. c #99C548",
"^. c #80D345",
"/. c #8BD746",
"(. c #9BD445",
"). c #95DC4B",
"_. c #9BDB4D",
"`. c #95D945",
"'. c #8BC858",
"]. c #97DA58",
"[. c #8ECE54",
"{. c #A8D445",
"}. c #A4DB53",
"|. c #A5DF5A",
" X c #AADA58",
".X c #B8D553",
"XX c #9BE24C",
"oX c #9AE15C",
"OX c #A5E557",
"+X c #8DC865",
"@X c #9CD765",
"#X c #99CA63",
"$X c #AECE63",
"%X c #A5D472",
"&X c #9FE669",
"*X c #AEE064",
"=X c #A6E46A",
"-X c #B4E061",
";X c #B0E470",
":X c #C9D85C",
">X c #FFC54B",
",X c #FFCA4C",
"<X c #FFC845",
"1X c #FFD749",
"2X c #FFCC59",
"3X c #FFC755",
"4X c #FFD555",
"5X c #C7D76C",
"6X c #ECC162",
"7X c #FFC26A",
"8X c #FFC861",
"9X c #EBD06F",
"0X c #FFDA64",
"qX c #F6CC79",
"wX c #829D8F",
"eX c #AFD183",
"rX c #B8E286",
"tX c #C1D7A0",
"yX c #C8E3A9",
/* pixels */
"                                                                                                    ",
"                                                                                                    ",
"                                                                                                    ",
"                                                                                                    ",
"                                                                                                    ",
"                                                                                                    ",
"                                                                                                    ",
"                                                b k                                                 ",
"                                              M.F.G.x                                               ",
"                                            A.T.q.0.D.                                              ",
"                                            P.g.a.w.8.7.                                            ",
"                                          O.4Xv.p.>X9.R.                                            ",
"                                          J.u.1.5.3.=.6.D.                                          ",
"                                          0Xx.l.1Xc.=.8X7X                                          ",
"                                        6Xc.p.1.x.i.=.a.d.F.                                        ",
"                                        8Xs.l.x.u.i.d.8.y.7Xw                                       ",
"                                      M.Y.5.z.1Xd.3X2Xa.*.0.k                                       ",
"                                      Q.f.1.1.4.d.>.&.-.*.6.W.q                                     ",
"                                    4 J.b.z.4.s.0X,X=.>X2Xq.G.q                                     ",
"                                    4 L.b.k.2.2.f.s.,.y.a.I.z @                                     ",
"                                    4 9Xf.,.x.x.i.f.<X3.c H.z 3                                     ",
"                                    1 K.f.3.n.n.b.c.1Xy.*.q.@.+                                     ",
"                                > $ 1 qXU.<.4.4.p.2.=.=.*.I.!.O $ W                                 ",
"                        0 - 9 a ' Q 1 !.d.,Xv.l.4X<X-.U.a.I.J.< m.Z e 9                             ",
"                        yXeXC./ V & < L.Y.d.i.i.p.<.&.:.;.q.G.o e Z / / S.tX                        ",
"                        V.rX;X].K * 6 X.E.g.2X<X3.t.t.:.6.E.l 2 B ` '.#X%X                          ",
"                        u S @X=X=X@X~.5 f e.3X,X3.s.,Xd.v d N.$X=X&X@X+X                            ",
"                          u V L '.&XoX~.7 g e.g.2.$.$.%.d @.5X*X).} )                               ",
"                            t y )  .].*X~.2 h e.4X4X7.h +.5X X`.^.) r                               ",
"                              t y ( { ].|.~.5 8 r.r.f X.5X X/.^.( r                                 ",
"                                > : G U ). X~.5 j j o.:X{.}.| ! :                                   ",
"                                p , D I Y ].@XZ.8 Z.-X{.{._.U M ,                                   ",
"                                  - V G [ ].+XB #.-X{.j.}.]._ :                                     ",
"                                  s ; ! ] ..K _ |.(.`.XXoX{ ^ ;                                     ",
"                                    # E ( N J |. X(.OXh.^.} F %                                     ",
"                                    - R n H /.`.(.}.h.`.^.( C =                                     ",
"                                    wX# C ( J `._._.XX/.P ( R i                                     ",
"                                      - a ^ P I /.).oX{ _ n >                                       ",
"                                        > C F [ I | } ` C y                                         ",
"                                            m ~ ] G F V t                                           ",
"                                              T M D : >                                             ",
"                                                T m >                                               ",
"                                                . X                                                 ",
"                                                                                                    ",
"                                                                                                    ",
"                                                                                                    ",
"                                                                                                    ",
"                                                                                                    ",
"                                                                                                    ",
"                                                                                                    "
};
