/* XPM */
static char *_5d317198aa74d1afa795627c6f59d3czSd9ADYJQVg7dPAG[] = {
/* columns rows colors chars-per-pixel */
"50 50 8 1 ",
"  c None",
". c #733E39",
"X c #252A44",
"o c #AF6648",
"O c #D17850",
"+ c #E4A672",
"@ c #265586",
"# c #2CE8F5",
/* pixels */
"                                                  ",
"                                                  ",
"                                                  ",
"                                                  ",
"                                                  ",
"                                                  ",
"                                                  ",
"                                                  ",
"                                                  ",
"                                                  ",
"                                                  ",
"                                                  ",
"                        ..                        ",
"                       .OO.                       ",
"                     .OO@@OO.                     ",
"                   .OO@@##@@OO.                   ",
"                 OOO@@#@##@#@@OOO                 ",
"                 .@@#@@@##@@@#@@.                 ",
"                 .@@@@#@##@#@@@@.                 ",
"                 .@@#@#OOOO###@@.                 ",
"                 .@@#O.OOOOOO#@@.                 ",
"                 .@OOOO....OOOO@.                 ",
"                 OOO...++++...OOO                 ",
"                 OO.OO++++++OO.OO                 ",
"                  .+++++..+++++.                  ",
"                  .+XX+.XX.+XX+.                  ",
"                  .+..+.XX.+..+.                  ",
"                  .++++.OO.++++.                  ",
"                   .....OO.....                   ",
"                    o. .OO. .o                    ",
"                    o. .OO. .o                    ",
"                    o. .OO. .o                    ",
"                        ..                        ",
"                                                  ",
"                                                  ",
"                                                  ",
"                                                  ",
"                                                  ",
"                                                  ",
"                                                  ",
"                                                  ",
"                                                  ",
"                                                  ",
"                                                  ",
"                                                  ",
"                                                  ",
"                                                  ",
"                                                  ",
"                                                  ",
"                                                  "
};
