/* XPM */
static char *_036ff14bfc849fccf473b76758f2747fpWQqhwvST9fh8oy[] = {
/* columns rows colors chars-per-pixel */
"50 50 132 2 ",
"   c None",
".  c #000000",
"X  c #0C0600",
"o  c #0D0D0D",
"O  c #1B0505",
"+  c #110F0F",
"@  c #15110E",
"#  c #131212",
"$  c #181616",
"%  c #1D1B1B",
"&  c #3F0D0D",
"*  c #271301",
"=  c #321903",
"-  c #3C1D03",
";  c #242323",
":  c #292626",
">  c #2C2C2C",
",  c #353535",
"<  c #3B3A3A",
"1  c #410D0D",
"2  c #490F0F",
"3  c #541410",
"4  c #5A1212",
"5  c #711717",
"6  c #4D2605",
"7  c #5B2D06",
"8  c #6F260F",
"9  c #6E3707",
"0  c #6F3807",
"q  c #7F3F08",
"w  c #6E3D14",
"e  c #463C3C",
"r  c #7D4616",
"t  c #444444",
"y  c #4C4646",
"u  c #4C4C4C",
"i  c #534D4D",
"p  c #555454",
"a  c #5B5454",
"s  c #5E5A5A",
"d  c #6A4646",
"f  c #665E5E",
"g  c #685F5F",
"h  c #7B6755",
"j  c #75665F",
"k  c #636464",
"l  c #6B6262",
"z  c #656768",
"x  c #6E6E6E",
"c  c #716765",
"v  c #7E6A60",
"b  c #736A6A",
"n  c #786F6F",
"m  c #727171",
"M  c #7A7272",
"N  c #7B7B7B",
"B  c #B12424",
"V  c #C82727",
"C  c #CA2A2A",
"Z  c #D12B2B",
"A  c #DC2E2E",
"S  c #E22E2E",
"D  c #E52E30",
"F  c #994C09",
"G  c #935017",
"H  c #9B5417",
"J  c #A4520B",
"K  c #AB550B",
"L  c #B45A0C",
"P  c #C24B17",
"I  c #DF4D1F",
"U  c #DF5A19",
"Y  c #CF670D",
"T  c #DB6E0F",
"R  c #DE710E",
"E  c #D46D14",
"W  c #DA6E11",
"Q  c #D4701B",
"!  c #DB731A",
"~  c #E3710E",
"^  c #E04324",
"/  c #E24E20",
"(  c #87674C",
")  c #837D7D",
"_  c #DE4444",
"`  c #DB5757",
"'  c #DB5858",
"]  c #C77C7C",
"[  c #D67E7E",
"{  c #D59055",
"}  c #D59259",
"|  c #838383",
" . c #8C8585",
".. c #8C8C8C",
"X. c #938D8D",
"o. c #959191",
"O. c #9A9595",
"+. c #9E9D9D",
"@. c #B98686",
"#. c #A29E9E",
"$. c #A4A2A2",
"%. c #ABA7A7",
"&. c #AAA8A8",
"*. c #B1AFAF",
"=. c #B4B2B2",
"-. c #B8B7B7",
";. c #BCBBBB",
":. c #D58080",
">. c #D58D8D",
",. c #CFAF94",
"<. c #D1B297",
"1. c #CEB9A7",
"2. c #CDBCAD",
"3. c #D0BCAA",
"4. c #CDBFB3",
"5. c #C0BFBF",
"6. c #C5C5C5",
"7. c #CDCDCD",
"8. c #CCCCCC",
"9. c #CCCFCF",
"0. c #CECECE",
"q. c #CECFCF",
"w. c gray81",
"e. c #CBCBCB",
"r. c #CACFD0",
"t. c #CDCFD0",
"y. c #CED0D0",
"u. c #CDD2D3",
"i. c gray82",
"p. c #D2D2D2",
"a. c gray83",
"s. c #D2D2D2",
/* pixels */
"                                                                                                    ",
"                                                                                                    ",
"                                                                                                    ",
"                                                                                                    ",
"                                                                                                    ",
"                                                                                                    ",
"                                                            . . . . .                               ",
"                                                            . . . . .                               ",
"                                                          O & 1 1 & O . .                           ",
"                                                . . . . . 1 A A A A 2 . . .                         ",
"                                                . O O O O 4 A S S S 3 X X X                         ",
"                                            . . O B C C C Z S S S S P L L 7 . .                     ",
"                                            . . O V S S S S S S S S U R ~ 0 . .                     ",
"                                            . . e ] :.:.:.:.:.[ _ S ^ I / 8 . .                     ",
"                                            . .  .y.8.8.8.8.8.e.' S S S D 5 . .                     ",
"                                            . X o.0.e.e.e.e.6.6.` S S S S 5 . .                     ",
"                    . . . .                 . o +.0.e.e.0.+.< t @.>.>.>.>.d . .                     ",
"                  . . . . . .               . o +.0.e.e.0.... o &.0.8.r.y.z . .                     ",
"                  > < < < < $               % : %.0.e.e.0.... o &.0.2.,.<.( - = .                   ",
"              . . x e.6.6.6.t . .       . + f b =.0.e.e.0.... o &.0.} T W W T K X .                 ",
"              . . x 0.e.e.e.u o o       o % l M -.0.e.e.0.... o &.8.{ ! ! E Y J X .                 ",
"              . . x 0.e.e.e.=.%.$., . u %.&.-.;.6.e.e.e.0.=.N N ;.e.4.1.3.h * *                     ",
"              . . m i.0.e.e.0.0.6., . p 0.0.0.8.e.e.e.e.e.0.0.0.e.e.e.8.t.z . .                     ",
"              . . t N o.e.e.e.e.6., . p 0.e.e.e.e.e.e.e.e.e.e.e.e.e.e.e.0...p < . .                 ",
"              . . . . t e.e.e.e.6., . p 0.e.e.e.e.e.e.e.e.e.e.e.e.e.e.e.e.e.0.... .                 ",
"              . . . . u 0.0.e.e.6., . p 0.e.e.e.e.e.e.e.e.e.e.e.8.0.e.e.e.e.0.... .                 ",
"              . . , k x | o.6.e.6.N s ..e.e.e.e.e.e.e.e.e.e.e.e.=.%.;.e.e.e.0.... .                 ",
"              . . m a.| . ; ;.e.e.0.0.0.0.e.e.e.e.0.0.e.e.e.0.0.X.c $.0.0.0.0.... .                 ",
"              . . x i.o.; t ;.e.e.e.e.6.;.;.e.e.;.;.;.6.e.6.;.;. .c O.;.;.;.;.) . .                 ",
"              . . x 0.6.;.;.e.e.e.e.0.*.M ) 6.6.) n M &.0.*.M M b b b M M M M i . .                 ",
"              . . x e.6.e.e.e.e.e.e.0.*.b ) 5.;.M b b %.e.&.b b b b b b b b b y . .                 ",
"                  > < p  . .o.o.o.o.o.$.*.=.$.) $.=.*.=.X.M b b b b b b b a ; $                     ",
"                  . . : b b b b b b l O.0.0.+.b -.0.0.#.b b b b b b b b b i . .                     ",
"                  . . : b b ..=.=. .c  .*.=.X.b #.=.=.X.b b b b b b b b b i . .                     ",
"                  . . : b b O.0.0.X.b b b b b b b b b b b b b b b O.$.X.b i . .                     ",
"                  . . ; l l o.0.0.X.b b b b b b b b b b b b b b M 6.i.*.b i . .                     ",
"                    . X # $ m &.&.| b b b b b b b b b b b b b l p N | b y < . .                     ",
"                      . . X a b b b b b b b b b b b b b b b b l # . . . . .                         ",
"                      . . X i l f j v c f l b b l f f j v j f s # . . . . .                         ",
"                            o o @ H Q r o % l l % o o w Q G + o                                     ",
"                            . . . J ~ q . # l g o . . 9 ~ F . .                                     ",
"                                  6 7 = . X : : o     - 7 - . . . .                                 ",
"                                  . . . . . . .       . . . . . . .                                 ",
"                                  . . . . . . .         . . . . . .                                 ",
"                                                                                                    ",
"                                                                                                    ",
"                                                                                                    ",
"                                                                                                    ",
"                                                                                                    ",
"                                                                                                    "
};
