/* XPM */
static char *_bcb4dc530924348e14f67aa47fe665cka14uk0pbDrc6Vbm[] = {
/* columns rows colors chars-per-pixel */
"50 50 7 1 ",
"  c None",
". c black",
"X c #656460",
"o c #A39E98",
"O c #C4C4C2",
"+ c #FFF9F9",
"@ c #FEFEFE",
/* pixels */
"                                                  ",
"                                                  ",
"                                                  ",
"                                                  ",
"                                                  ",
"                                                  ",
"                                                  ",
"                                                  ",
"                       ........                   ",
"                      .ooooooo.                   ",
"                     .ooooooooo.                  ",
"                    .oooo..ooooo.                 ",
"                    .ooo.oo.oooo.                 ",
"                    .oo.oooo.oooo.                ",
"                     .oooo....ooo.                ",
"                     ...oo@@@@o@@@.               ",
"                      .ooo..@@@@@@@.              ",
"                       ..o  .@@@@@@@X             ",
"                            .@@@@.O@.             ",
"                            .@@@@@@@@XX           ",
"                            .@@@@@@@@@.           ",
"                           .@@@@@X.@@@.           ",
"                           .@@@@@.+.X@.           ",
"            ..            .@@@@@@.+....           ",
"           .OO....       .@@@@@@@.+++.            ",
"            O.@@@@XX.... @@@@@@@@.+.+.            ",
"            .@@@@@@@@@@@@@@@@@@@@.  ..            ",
"            .@@@@@@@@@@@@@@@@@@@@.                ",
"            .@@@@@@@@@@@@@@@@@@@.                 ",
"            .@@@@@@@@@@@@@@@@@@@.                 ",
"            XX@@@@@@@@@@@@@@@@@XX                 ",
"             .@@@@@@@@@@@@@@@@X.                  ",
"             XX@@@@..@@@@.@@@@X.                  ",
"              .@@@@.@@....@@@@X.                  ",
"              .@@@@.@@.  .@@@@X.                  ",
"            X.@@@@@.@@.   .@@@X.                  ",
"           .XX@@@@.@@.X   .@@@X.                  ",
"           .@@@@...@.     .@@@X.                  ",
"           .@@..  .@.     .@@@X.                  ",
"           .@.     .@.     .@@X.                  ",
"           .@.     .@.     .@@X@.                 ",
"           ...     ....    ......                 ",
"                                                  ",
"                                                  ",
"                                                  ",
"                                                  ",
"                                                  ",
"                                                  ",
"                                                  ",
"                                                  "
};
