/* XPM */
static char *d206f7ed36964833a964599ae8fc7b19Y1RTrpvmkal337An[] = {
/* columns rows colors chars-per-pixel */
"50 50 224 2 ",
"   c #4E3A26",
".  c #533C26",
"X  c #543C33",
"o  c #5C452C",
"O  c #584228",
"+  c #5C4534",
"@  c #5C4935",
"#  c #5E4C3A",
"$  c #574531",
"%  c #6B4B2D",
"&  c #62462B",
"*  c #6E502C",
"=  c #75532F",
"-  c #634632",
";  c #644A33",
":  c #6A4C35",
">  c #63463E",
",  c #634D39",
"<  c #694D3A",
"1  c #6C5236",
"2  c #64513D",
"3  c #6C533B",
"4  c #665430",
"5  c #745433",
"6  c #7D5936",
"7  c #73563B",
"8  c #73593D",
"9  c #7B5B3C",
"0  c #785739",
"q  c #714D33",
"w  c #7C613B",
"e  c #654D44",
"r  c #6D5542",
"t  c #6C5944",
"y  c #6D584B",
"u  c #715641",
"i  c #745B44",
"p  c #7C5D43",
"a  c #765A49",
"s  c #7A5E4A",
"d  c #71544C",
"f  c #6A5D55",
"g  c #725C51",
"h  c #7B5F53",
"j  c #7C6144",
"k  c #75624D",
"l  c #7C634B",
"z  c #7E6947",
"x  c #736253",
"c  c #7C6552",
"v  c #7D6853",
"b  c #74645B",
"n  c #7C6C5C",
"m  c #7F645D",
"M  c #6F6154",
"N  c #7C6D64",
"B  c #7F7265",
"V  c #815E3B",
"C  c #805932",
"Z  c #84633E",
"A  c #8A643F",
"S  c #825E43",
"D  c #836344",
"F  c #8A6543",
"G  c #8D6A44",
"H  c #83654B",
"J  c #8A654A",
"K  c #846B4D",
"L  c #8C6B4D",
"P  c #856845",
"I  c #926B45",
"U  c #926D4D",
"Y  c #986A47",
"T  c #8C724F",
"R  c #95714D",
"E  c #9B734C",
"W  c #9E7A4C",
"Q  c #977446",
"!  c #836653",
"~  c #856B53",
"^  c #8B6D53",
"/  c #836B5A",
"(  c #8B6E5A",
")  c #926E52",
"_  c #996C54",
"`  c #8D7254",
"'  c #85725E",
"]  c #8C735A",
"[  c #857152",
"{  c #947254",
"}  c #9A7654",
"|  c #957954",
" . c #9C7A55",
".. c #93755A",
"X. c #9A7659",
"o. c #94795C",
"O. c #9C7B5B",
"+. c #A27B4E",
"@. c #A4744C",
"#. c #A37655",
"$. c #A37C54",
"%. c #A97D55",
"&. c #A3765C",
"*. c #A27D5B",
"=. c #AB7F5C",
"-. c #836C61",
";. c #8A7562",
":. c #8E7965",
">. c #85766D",
",. c #8B766B",
"<. c #8C7B6B",
"1. c #867769",
"2. c #937561",
"3. c #947B63",
"4. c #9C7D62",
"5. c #927D6A",
"6. c #8E7D72",
"7. c #857870",
"8. c #947E73",
"9. c #9A7F74",
"0. c #A27E62",
"q. c #A87F63",
"w. c #9D825C",
"e. c #97815A",
"r. c #A48153",
"t. c #AA8255",
"y. c #A4825D",
"u. c #AB835D",
"i. c #AE895D",
"p. c #A38A5C",
"a. c #B1855D",
"s. c #B48A5D",
"d. c #B88C5A",
"f. c #9E8263",
"g. c #95816D",
"h. c #9C846B",
"j. c #948374",
"k. c #9B8573",
"l. c #94847B",
"z. c #9C8B7B",
"x. c #9A8A78",
"c. c #8F827A",
"v. c #A48263",
"b. c #AA8563",
"n. c #A68A65",
"m. c #AC8A65",
"M. c #A4866A",
"N. c #AA8569",
"B. c #A5896B",
"V. c #AC8A6B",
"C. c #B18664",
"Z. c #B38B64",
"A. c #B98F65",
"S. c #B28D6B",
"D. c #B98D69",
"F. c #AD916C",
"G. c #B59167",
"H. c #BC9465",
"J. c #B4926D",
"K. c #BB936C",
"L. c #BC986E",
"P. c #AC8C71",
"I. c #A28D79",
"U. c #A28A74",
"Y. c #B28F71",
"T. c #B98C72",
"R. c #AE9174",
"E. c #A5917C",
"W. c #B59373",
"Q. c #BA9573",
"!. c #BD9974",
"~. c #B59579",
"^. c #BD9579",
"/. c #BE9C7A",
"(. c #B69979",
"). c #BEA27B",
"_. c #C39665",
"`. c #C49A66",
"'. c #C1956B",
"]. c #C39B6C",
"[. c #C99B6A",
"{. c #C39B73",
"}. c #CA9E76",
"|. c #C39E7A",
" X c #C29778",
".X c #CFA46F",
"XX c #C4A176",
"oX c #CCA476",
"OX c #C4A17B",
"+X c #CCA37C",
"@X c #D4AC7C",
"#X c #D5A67B",
"$X c #9E9181",
"%X c #A39183",
"&X c #A39389",
"*X c #AD9B8E",
"=X c #A89687",
"-X c #B19B89",
";X c #AC9B91",
":X c #B19F92",
">X c #A58F82",
",X c #B4A495",
"<X c #B8A695",
"1X c #B6A59A",
"2X c #BBAA9C",
"3X c #B9A799",
"4X c #BDB0A0",
"5X c #C29F81",
"6X c #C4A482",
"7X c #CAA682",
"8X c #CBA788",
"9X c #CAAA86",
"0X c #D5AD85",
"qX c #D6AA82",
"wX c #DCB186",
"eX c #C1B09E",
"rX c #D7B792",
"tX c #C2AEA2",
"yX c #C4B3A5",
"uX c #C8B6A8",
"iX c #D1BBAC",
"pX c #CEBBB4",
"aX c #D3C3B5",
"sX c #D5C7B8",
/* pixels */
"j ` 7 H ..j ` f.~ ] ] ~ ( L H P.V.M.9 L ` ~.9 p 4 o.n.m.r.r.].].Q.Y.H K h.P.P.X.4.V.5XV.Y.R.l t  .S.",
"i i & 3 u ; 8 i @ 2 i 3 i i 3 ] l H 1 3 1 H o 8 O t l ] ` H } X.{ ` 3 r v l ! p ~ ( o.L ^ ( , @ 0 D ",
"k.:.k k k k ' c g n 5.<.j.k.' 5.v :.5./ c / k k.,.8.8.*X*X8.8.8.o.g.:.k.%X5.g.k.g.;.2.( ( ' x M c ] ",
"yX=Xj.j.<.z.*Xx.l.&XyX4XyXyX*X=Xx.*X<X%X%Xz.z.yXtXuXtXaXpX1X1X;XE.<X3XaXsX2XtXiX,X%XI.I.I.z.l.l.x.%X",
"1.x x g y -.1.x x n j.6.<.j.;./ n ' ;.n ;./ x k.~ g.g.k.g.<.x.<.:.h.g.%X%X1.8.>Xj.;.;.5.' n B b x n ",
"+   , 2 2 t , + # $ t 3 ; i s l i i 3 u l c - a O j z z w j ` K O.o.t t t ; u l ( ~ ] 4.H i c # a i ",
"s p ......] p ( l 7 ( ` H ..v.V.M.M...V.V.W.D ..j o.f.n.y.*.K.!.7X/.K j ~ ^ ..X.B.W.|.8XN.O.M.l V.M.",
") L X.^ { L 0 0.9 % ) O.L R  .b.v.m.} W.m.Q.6 U ; p K v.b.#.K.+X{.D.Z 9 { O.*.Y *.J.+XqXu.{ v.1 *.y.",
"J { { ) ) L L O.H ; ^ ..L } } b. .m.} n.W.N.9 J a D D L v.S.Z.H.t.6Xl 3 L *.U o.v.!.7XQ.v.N.3.3 4.4.",
"L X.X.X.v.O.{ { s : { 4.) }  .u. .m.| b.S.v.9 U r L |  .*.*.y.H.W 9X] 3 F m.} K V./.7XQ.b.V.4.s O.O.",
"{ X.} *.Y.N.} L i 3 ..f.{ } y.b.*.S.R y.V.v.S } s ..y.y.0.*.u.`.s.rXf.l { D. .j n.W.!.m.*.M.4.s o...",
"{ } { X.V.N.{ L i 7 ..4.L { N.S.b.m.G } N.v.D X./ ..| } 0.b.Z.].`.7X` ..b.A.R K y.n.S.y. .v.3.u { { ",
"O.*.{ { O.X.U U s i ^ O.L L V.Q.n.b.Z L v.v.S { a ^ | } *.0.u.H.H.K.H ..u.Z. .^ O.y.b.y.*.N.3.u ` { ",
"N.N.O.{ } { L ) ^ p p O.L D V.|.J.S.Z R N.N.D { - ^ n.m.0.} %.`.`.OX` { &.'.%.9 |  .*.y.v.V.3.3 { ..",
"N.N.O.{ O.X.) { 2.p 7 4.{ D V.OXS.K.U  .V.N.F O.< ..J.J.v.X.u.oX[.XX} v.Z.}.m.9 | |  .y.b.P.3.u f.v.",
"O.O.{ { v.v.} } 4.p 7 M.X.V V.OXu.S.R  .v.O.9 } a { w.y.0.v.D.@Xd. .9 V.}.+XK.X.y.O.y.b.S.~.M.l R.P.",
"N.{ G N.m. .u.u.$.Z O.4.4.5 m.K.F.X.J *.L. .j 2.c X.Z.Z.=.=.Z.H.E { 8 N.+XwX|.~.Q.Q.X.N.^.V.M.j b.%.",
"b.{ | /.Q. .u.Z.i.Z X.....5 y.Z.n.X.L *.K. .9 ! i { i.Z.C.N.D.H.%.O.p v.L.}.!.(.J.W.*.S.^.V.f.8 V.y.",
"*.U } 7XQ.U %.K.K.G O.( { 5 b.G.w...J O.K.E 5 a s ..G.]. X^.Q.L.d.n.H v.D.'.J.W.W.Q.V.Q./.P.O.8 v.{ ",
"*.D L /.D.Z  .{.K.G v.^ ( 9 b.K.w.K p 4.Q.G % s / f.L.XX|.|. XH.A.S.^ Y.{.{.Z.B.|.|.Y.D.W.P.O.j o.l ",
"y.D D !.J.A  .!.i.V v.K K 0 *.K.w.p : 4.Q.Z & / / 4.J.{. X XQ.A.].W.` W.+X#XJ.B.|.Q.N.*.v.V.4.K h.l ",
"y.D L 6X|.E %.!.Z.V N.K ^ S *.K.e.7 - X.J.w o -.h ..m.K.^.^.Q.K.oX!.` W.qXqX!.P.Q.b.*.J } V.4.` B.K ",
"v.L R 6X|. .Z.|.XXF V.K ( L *.Z.` 7 - ^ n.Z & c r ^ y.D.T.T.T.G.'.Q.o./.0XqXQ.P.W.y.O.F ) Y...H B.K ",
"v.U R !.J.E Z.+X0XG N.p ^ L  .y.z 8 : H O.P ; y + p  .b.C.q.q.u.a.J.4.8XwXqXJ.M.!.b.v.J } Y.K 0 v.J ",
"S.9 { Q.N.} } Q.7XZ *.U X.X.^ ( [ 3 3 (  .w 1 i @ H b.D.S.} |._.+XK.` ).@X].N.U.L.n.K D U K.^ v o.4.",
"W.D  ./.S.} O.W.+XF *.L ) { H K K 2 : ( O.Z 0 l $ p #.=.b.O.0X@X+XQ.| /.oX].v.h.{.J...J J %.0 2 ^ ` ",
"Q.F *.|.S.} } S.|.F *.L L J p p z 3 < ( u.G 0 ! @ p #.#.*.O.0XwX{./.o.W.L.H.*.3.H.J.4.) I %.0 , ^ { ",
"J.F *.|.V.} { V.Q.F O.L L D H p K 3 : ^ m.Q 9 ( 2 D =.#.X.{ {.[.K./.o.B.u.a.O.] i.J.B.O.{ N.p t O.O.",
"S.F y.!.m.} } S.J.F } { { D ^ H H 8 : ^ J.E 9 ..t D C.E U L Z.d.s.W.` 4.$.=.} ( i.W.P.4.} Z.p 2 O.y.",
"J.G b.|.m.$.*.K.K.G } v.0.D ( ( z i : L L.$.Z 4.t j b.I F ) Z._.s.S.~ o. .#.{ ( $.n.4.{ U Z.p # O.*.",
"K.R m.XXZ.*.y.!.|.U } S.N.9 ^ ..K H q L {.$.9 4.t p Z.Y J X.A._.H.S.H 2.&.#.) ] Q  .^ H U K.H 2 O.*.",
"K.R Z.XXm.$.y.!.7XR  .Q.V.0 K ..| ( 7 ) {.W = ..t D  X#.{ O.m.d.].W.! 3.0.&.) ..W O.^ H { !.K 2 } O.",
"A.=.Z.{.D.y.Z.Q.{.R u.N.S.D p ..D.L 7 f.XXs.5 h.d 7 y.t.Z.b.Z.Z.p.w.9 ..v.M.X.{ %.X.H D b.K.^ -  .y.",
"A.%.u.K.u. .y.S.{.I y.n.V.S p v.D.{ 8 w.XXA.5 ] d 7 i.i.A.Z.Z.i.p.w.5 ^ O.0.} { u.O.~ p *.K.^ :  .y.",
"K.u.u.D.%.R O.n.!.I y.V.N.D H V.K.o.i | L.H.0 ( e 0 m.i.A.Z.Z.t.p.w.5 L X.v.O.y.a.O.~ 9  .K.{ u  .y.",
"D.%.u.D.y.U  .v.{.G  .J.v.L L M.D.4.i K m.A.9 ] > 7 m.t.a.C.C.+.y. .5 { O.v.y.Z.Z.O...p  . X{ l *.y.",
"u.E *.m.O.L | 0.|.G } J.*...^ O.*...j K u.Z.9 ( > p G.+.%.C.A.$.| R = | y.u.u.G.Z. .4.D %.}.{ l b.y.",
"%.R  .m.O.L } v.|.I R m.{ O.{ ^ J ^ l ` b.C.5 l > H K.W $.D.L.t. .} 6 *.N.m.u.L.d. .M.J y.+XR K b.y.",
"u.R } b. .L X.V.L.I R *.9 O...L U ^ i ` Z.Z.q c > K L.W $.K.{.t.u.y.D n.S.Z.s.].d. .B.P $.+XU ~ b.*.",
"y.U R X.L D ..B.A.I U | % { O.L q...i ^ S.D.9 ( X H L.Q $.K.{.r.m.u.F b.m.u.t.`.d.} B.D  .+XL ` b. .",
"&._ X.X.J 9 L O.v.9 T D D X.J O.V.O.% 0.N.W.S )   ~ 8X@.Y a.K.} d.s.C v.Y.$.@X.XS.S.N.X.N.Q.} F O.{ ",
"_ J ) X.J 0 J O.W.D { F D } D { V.{ & X.v.v.0 ..# K !.%.t.'.|.N._.A.6 O.S.$.oXH.V.V.N.} N.Q.O.{ y.} ",
"X.J ) 0.L 9 L 4.W.J R L R y.U } (.O.% O.M.4.9 4.@ H W. .+.L.|.N.wX|.D 4.W.V.0X{.V.V.F.w.W.).v.X.J.n.",
"{ D ^ 4.` j ` M.B.D D H ` 4.` { F.O.7 ` o.` 7 ` o ] 6XO.G S./.V.rX/.D ] h.f.|.J.f.B.R.M.R.(.o.K W.V.",
"7 ; 7 j 7 : p ] ( : : 7 i j i 3 K [ 1 1 8 u O ;   3 o.K 5 K ` ..P.4.3 k v i ( H K ] o.l ~ o.i 8 ^ H ",
"5.;.5.:.k i ! ( ;.c / 5.5.5.5.:.k.-XU.:.5.g./ ' v 2 l k.5.5.;.I.k.k.<.E.=Xz.E.k.k.I.I.;.:.x.:.5.5.:.",
"3X3X3X=X<.,.k.9.l.j.%X1X,X;X3X1XeXaXuX,X2X1X*X,X-Xk.>XuX2XuX<XuX*X:X,XuXsXsXsXiX2XyXuX*X;X2X*X:X:X*X",
"B 7.6.b e g -.m f f N c.7.N >.>.<.j.<.N >.b b >.g -.8.l.N &Xl.l.1.-.n <.z.$X%Xz.l.&X;Xl.6.l.N N <.>.",
"D S : H H : F F D * D i 7 8 % L F H . o 0 9 . 2 X r { J : l *.E +.... u D V 8 2 j D { 0 S ` o . 9 j ",
") ) p ..3.D O.*.} Z o.( ~ ^ p 0.m.M.i ~ O.*.p ' y ..W.V.] B.7X].{.(.i 3.v.*.o.' 4.M.~.O.N.~.H i O.M."
};
